<svg width="35" height="41" viewBox="0 0 35 41" fill="none" xmlns="http://www.w3.org/2000/svg">
<path d="M32.8712 0H6.26118C4.60061 0 3.00806 0.659658 1.83386 1.83386C0.659658 3.00806 0 4.60061 0 6.26118V39.1324C0 39.5475 0.164915 39.9457 0.458465 40.2392C0.752014 40.5328 1.15015 40.6977 1.5653 40.6977H29.7406C30.1557 40.6977 30.5539 40.5328 30.8474 40.2392C31.141 39.9457 31.3059 39.5475 31.3059 39.1324C31.3059 38.7172 31.141 38.3191 30.8474 38.0255C30.5539 37.732 30.1557 37.5671 29.7406 37.5671H3.13059C3.13059 36.7368 3.46042 35.9405 4.04752 35.3534C4.63462 34.7663 5.4309 34.4365 6.26118 34.4365H32.8712C33.2863 34.4365 33.6845 34.2716 33.978 33.978C34.2716 33.6845 34.4365 33.2863 34.4365 32.8712V1.5653C34.4365 1.15015 34.2716 0.752014 33.978 0.458464C33.6845 0.164914 33.2863 0 32.8712 0ZM31.3059 31.3059H6.26118C5.16184 31.3044 4.08171 31.594 3.13059 32.1453V6.26118C3.13059 5.4309 3.46042 4.63462 4.04752 4.04752C4.63462 3.46042 5.4309 3.13059 6.26118 3.13059H31.3059V31.3059Z" fill="#ffff"/>
</svg>
