<svg width="40" height="41" viewBox="0 0 40 41" fill="none" xmlns="http://www.w3.org/2000/svg">
<path d="M38.6089 10.3121C39.0513 8.88516 39.1932 7.38209 39.0257 5.89762C38.8582 4.41315 38.3849 2.97949 37.6357 1.68704C37.5087 1.467 37.3259 1.28428 37.1059 1.15726C36.8858 1.03025 36.6362 0.963407 36.3821 0.963464C34.6965 0.959935 33.0335 1.35069 31.5258 2.10451C30.0182 2.85834 28.7077 3.95433 27.6992 5.30492H23.3578C22.3492 3.95433 21.0388 2.85834 19.5311 2.10451C18.0235 1.35069 16.3604 0.959935 14.6749 0.963464C14.4208 0.963407 14.1711 1.03025 13.9511 1.15726C13.731 1.28428 13.5483 1.467 13.4213 1.68704C12.6721 2.97949 12.1988 4.41315 12.0313 5.89762C11.8638 7.38209 12.0057 8.88516 12.448 10.3121C11.5539 11.8727 11.075 13.6365 11.057 15.435V16.8821C11.06 19.3307 11.9489 21.6955 13.5595 23.5398C15.1701 25.3842 17.3936 26.5835 19.8195 26.9163C18.8293 28.1834 18.2918 29.7455 18.2927 31.3536V32.8008H13.9513C12.7998 32.8008 11.6956 32.3434 10.8814 31.5292C10.0672 30.715 9.60982 29.6108 9.60982 28.4593C9.60982 27.5091 9.42266 26.5682 9.05903 25.6903C8.6954 24.8125 8.16242 24.0148 7.49052 23.3429C6.81861 22.671 6.02095 22.138 5.14307 21.7744C4.26518 21.4107 3.32428 21.2236 2.37406 21.2236C1.99025 21.2236 1.62216 21.3761 1.35077 21.6474C1.07938 21.9188 0.92691 22.2869 0.92691 22.6707C0.92691 23.0545 1.07938 23.4226 1.35077 23.694C1.62216 23.9654 1.99025 24.1179 2.37406 24.1179C3.52549 24.1179 4.62975 24.5753 5.44393 25.3895C6.25811 26.2037 6.71552 27.3079 6.71552 28.4593C6.71552 30.3784 7.47785 32.2188 8.83482 33.5758C10.1918 34.9328 12.0322 35.6951 13.9513 35.6951H18.2927V38.5894C18.2927 38.9732 18.4452 39.3413 18.7166 39.6127C18.988 39.8841 19.3561 40.0366 19.7399 40.0366C20.1237 40.0366 20.4918 39.8841 20.7632 39.6127C21.0346 39.3413 21.187 38.9732 21.187 38.5894V31.3536C21.187 30.2022 21.6444 29.098 22.4586 28.2838C23.2728 27.4696 24.3771 27.0122 25.5285 27.0122C26.6799 27.0122 27.7842 27.4696 28.5984 28.2838C29.4125 29.098 29.8699 30.2022 29.8699 31.3536V38.5894C29.8699 38.9732 30.0224 39.3413 30.2938 39.6127C30.5652 39.8841 30.9333 40.0366 31.3171 40.0366C31.7009 40.0366 32.069 39.8841 32.3404 39.6127C32.6118 39.3413 32.7642 38.9732 32.7642 38.5894V31.3536C32.7652 29.7455 32.2277 28.1834 31.2375 26.9163C33.6634 26.5835 35.8869 25.3842 37.4975 23.5398C39.1081 21.6955 39.997 19.3307 40 16.8821V15.435C39.982 13.6365 39.503 11.8727 38.6089 10.3121ZM37.1057 16.8821C37.1057 18.8012 36.3434 20.6416 34.9864 21.9986C33.6294 23.3556 31.789 24.1179 29.8699 24.1179H21.187C19.268 24.1179 17.4275 23.3556 16.0706 21.9986C14.7136 20.6416 13.9513 18.8012 13.9513 16.8821V15.435C13.969 13.9879 14.4023 12.5764 15.1994 11.3685C15.348 11.1726 15.4443 10.9421 15.4791 10.6987C15.5139 10.4553 15.4862 10.2071 15.3984 9.97741C15.0215 9.00528 14.8401 7.96832 14.8646 6.92596C14.8891 5.8836 15.1191 4.85632 15.5413 3.90299C16.7257 4.0304 17.8662 4.42273 18.8782 5.05089C19.8903 5.67906 20.748 6.52695 21.3878 7.53172C21.5182 7.7356 21.6976 7.90353 21.9097 8.02014C22.1217 8.13675 22.3596 8.19832 22.6016 8.19922H28.4535C28.6965 8.19923 28.9355 8.13809 29.1485 8.02144C29.3616 7.90478 29.5419 7.73637 29.6728 7.53172C30.3125 6.52686 31.1702 5.6789 32.1823 5.05072C33.1944 4.42254 34.3349 4.03027 35.5193 3.90299C35.9409 4.85656 36.1703 5.88396 36.1942 6.92632C36.2181 7.96868 36.0361 9.00552 35.6586 9.97741C35.5711 10.2049 35.5418 10.4506 35.5734 10.6923C35.605 10.9339 35.6964 11.1639 35.8394 11.3612C36.6445 12.5691 37.0842 13.9835 37.1057 15.435V16.8821Z" fill="#ffff"/>
</svg>
