<svg width="40" height="41" viewBox="0 0 40 41" fill="none" xmlns="http://www.w3.org/2000/svg">
<path d="M38.8748 16.3814L22.5943 1.02075C22.5864 1.0138 22.5789 1.00632 22.5719 0.998361C21.9725 0.453237 21.1914 0.151169 20.3812 0.151169C19.571 0.151169 18.7899 0.453237 18.1905 0.998361L18.1681 1.02075L1.90594 16.3814C1.57423 16.6864 1.30944 17.057 1.12833 17.4696C0.947228 17.8823 0.853752 18.328 0.853821 18.7787V37.5928C0.853821 38.4563 1.19687 39.2845 1.80751 39.8952C2.41814 40.5058 3.24634 40.8488 4.10991 40.8488H13.8782C14.7418 40.8488 15.57 40.5058 16.1806 39.8952C16.7912 39.2845 17.1343 38.4563 17.1343 37.5928V27.8245H23.6465V37.5928C23.6465 38.4563 23.9895 39.2845 24.6001 39.8952C25.2108 40.5058 26.039 40.8488 26.9025 40.8488H36.6708C37.5344 40.8488 38.3626 40.5058 38.9732 39.8952C39.5839 39.2845 39.9269 38.4563 39.9269 37.5928V18.7787C39.927 18.328 39.8335 17.8823 39.6524 17.4696C39.4713 17.057 39.2065 16.6864 38.8748 16.3814ZM36.6708 37.5928H26.9025V27.8245C26.9025 26.9609 26.5595 26.1327 25.9489 25.5221C25.3382 24.9114 24.51 24.5684 23.6465 24.5684H17.1343C16.2707 24.5684 15.4425 24.9114 14.8319 25.5221C14.2212 26.1327 13.8782 26.9609 13.8782 27.8245V37.5928H4.10991V18.7787L4.1323 18.7583L20.3904 3.4038L36.6505 18.7542L36.6729 18.7746L36.6708 37.5928Z" fill="#5200FF"/>
</svg>
