<svg width="40" height="41" viewBox="0 0 40 41" fill="none" xmlns="http://www.w3.org/2000/svg">
<path d="M19.5365 11.4831C17.7532 11.4831 16.0099 12.012 14.527 13.0028C13.0442 13.9935 11.8885 15.4018 11.206 17.0494C10.5236 18.697 10.345 20.51 10.6929 22.2591C11.0409 24.0082 11.8996 25.6149 13.1607 26.8759C14.4217 28.1369 16.0283 28.9957 17.7774 29.3436C19.5265 29.6915 21.3395 29.513 22.9872 28.8305C24.6348 28.148 26.043 26.9923 27.0338 25.5095C28.0246 24.0267 28.5534 22.2834 28.5534 20.5C28.5509 18.1093 27.6001 15.8173 25.9097 14.1269C24.2192 12.4364 21.9272 11.4856 19.5365 11.4831ZM19.5365 26.5112C18.3476 26.5112 17.1854 26.1587 16.1969 25.4982C15.2083 24.8376 14.4379 23.8988 13.9829 22.8004C13.5279 21.702 13.4089 20.4933 13.6408 19.3273C13.8728 18.1612 14.4453 17.0901 15.286 16.2494C16.1266 15.4087 17.1977 14.8362 18.3638 14.6043C19.5299 14.3723 20.7385 14.4914 21.837 14.9463C22.9354 15.4013 23.8742 16.1718 24.5347 17.1603C25.1952 18.1489 25.5478 19.3111 25.5478 20.5C25.5478 22.0943 24.9145 23.6233 23.7871 24.7506C22.6598 25.8779 21.1308 26.5112 19.5365 26.5112ZM28.5534 0.963455H10.5197C7.7306 0.966439 5.05661 2.07572 3.08444 4.04789C1.11226 6.02007 0.0029835 8.69406 0 11.4831V29.5169C0.0029835 32.3059 1.11226 34.9799 3.08444 36.9521C5.05661 38.9243 7.7306 40.0336 10.5197 40.0366H28.5534C31.3425 40.0336 34.0165 38.9243 35.9887 36.9521C37.9608 34.9799 39.0701 32.3059 39.0731 29.5169V11.4831C39.0701 8.69406 37.9608 6.02007 35.9887 4.04789C34.0165 2.07572 31.3425 0.966439 28.5534 0.963455ZM36.0675 29.5169C36.0675 31.5097 35.2758 33.421 33.8667 34.8301C32.4575 36.2393 30.5463 37.0309 28.5534 37.0309H10.5197C8.52683 37.0309 6.6156 36.2393 5.20644 34.8301C3.79728 33.421 3.00562 31.5097 3.00562 29.5169V11.4831C3.00562 9.49028 3.79728 7.57905 5.20644 6.16989C6.6156 4.76074 8.52683 3.96908 10.5197 3.96908H28.5534C30.5463 3.96908 32.4575 4.76074 33.8667 6.16989C35.2758 7.57905 36.0675 9.49028 36.0675 11.4831V29.5169ZM31.559 10.7317C31.559 11.1776 31.4268 11.6134 31.1791 11.9841C30.9314 12.3548 30.5794 12.6437 30.1675 12.8144C29.7556 12.985 29.3023 13.0296 28.865 12.9426C28.4278 12.8557 28.0261 12.641 27.7108 12.3257C27.3956 12.0104 27.1809 11.6088 27.0939 11.1715C27.0069 10.7342 27.0516 10.281 27.2222 9.86908C27.3928 9.45717 27.6817 9.10511 28.0524 8.85742C28.4231 8.60972 28.859 8.47751 29.3048 8.47751C29.9027 8.47751 30.476 8.71501 30.8988 9.13776C31.3215 9.5605 31.559 10.1339 31.559 10.7317Z" fill="#ffff"/>
</svg>
