<svg width="40" height="41" viewBox="0 0 40 41" fill="none" xmlns="http://www.w3.org/2000/svg">
<path d="M36.1406 0.963455H3.07874C2.2816 0.963455 1.51711 1.28012 0.953446 1.84378C0.389783 2.40745 0.0731201 3.17194 0.0731201 3.96908V37.0309C0.0731201 37.8281 0.389783 38.5926 0.953446 39.1562C1.51711 39.7199 2.2816 40.0366 3.07874 40.0366H36.1406C36.9377 40.0366 37.7022 39.7199 38.2659 39.1562C38.8296 38.5926 39.1462 37.8281 39.1462 37.0309V3.96908C39.1462 3.17194 38.8296 2.40745 38.2659 1.84378C37.7022 1.28012 36.9377 0.963455 36.1406 0.963455ZM36.1406 37.0309H3.07874V3.96908H36.1406V37.0309ZM13.5984 17.4944V29.5169C13.5984 29.9154 13.4401 30.2977 13.1583 30.5795C12.8764 30.8614 12.4942 31.0197 12.0956 31.0197C11.697 31.0197 11.3148 30.8614 11.033 30.5795C10.7511 30.2977 10.5928 29.9154 10.5928 29.5169V17.4944C10.5928 17.0958 10.7511 16.7136 11.033 16.4317C11.3148 16.1499 11.697 15.9916 12.0956 15.9916C12.4942 15.9916 12.8764 16.1499 13.1583 16.4317C13.4401 16.7136 13.5984 17.0958 13.5984 17.4944ZM30.1293 22.7542V29.5169C30.1293 29.9154 29.971 30.2977 29.6892 30.5795C29.4074 30.8614 29.0251 31.0197 28.6265 31.0197C28.228 31.0197 27.8457 30.8614 27.5639 30.5795C27.2821 30.2977 27.1237 29.9154 27.1237 29.5169V22.7542C27.1237 21.7578 26.7279 20.8022 26.0233 20.0976C25.3187 19.393 24.3631 18.9972 23.3667 18.9972C22.3703 18.9972 21.4147 19.393 20.7101 20.0976C20.0055 20.8022 19.6097 21.7578 19.6097 22.7542V29.5169C19.6097 29.9154 19.4513 30.2977 19.1695 30.5795C18.8877 30.8614 18.5054 31.0197 18.1069 31.0197C17.7083 31.0197 17.326 30.8614 17.0442 30.5795C16.7624 30.2977 16.604 29.9154 16.604 29.5169V17.4944C16.6059 17.1263 16.7428 16.7717 16.9888 16.4978C17.2348 16.2239 17.5727 16.0499 17.9385 16.0086C18.3043 15.9674 18.6725 16.0619 18.9733 16.2741C19.274 16.4863 19.4864 16.8016 19.5702 17.16C20.5868 16.4704 21.7721 16.0706 22.9988 16.0038C24.2254 15.937 25.4471 16.2055 26.5327 16.7807C27.6182 17.3558 28.5266 18.2157 29.1602 19.2682C29.7939 20.3206 30.1289 21.5257 30.1293 22.7542ZM14.3498 12.2345C14.3498 12.6804 14.2176 13.1162 13.9699 13.4869C13.7222 13.8576 13.3702 14.1465 12.9583 14.3172C12.5464 14.4878 12.0931 14.5324 11.6558 14.4454C11.2186 14.3585 10.8169 14.1438 10.5016 13.8285C10.1864 13.5133 9.97169 13.1116 9.88471 12.6743C9.79773 12.237 9.84237 11.7838 10.013 11.3719C10.1836 10.96 10.4725 10.6079 10.8432 10.3602C11.2139 10.1125 11.6498 9.98032 12.0956 9.98032C12.6935 9.98032 13.2668 10.2178 13.6896 10.6406C14.1123 11.0633 14.3498 11.6367 14.3498 12.2345Z" fill="#ffff"/>
</svg>
